<?xml version="1.0" standalone="no"?>
<!DOCTYPE svg PUBLIC "-//W3C//DTD SVG 20010904//EN"
 "http://www.w3.org/TR/2001/REC-SVG-20010904/DTD/svg10.dtd">
<svg version="1.0" xmlns="http://www.w3.org/2000/svg"
 width="700.000000pt" height="700.000000pt" viewBox="0 0 700.000000 700.000000"
 preserveAspectRatio="xMidYMid meet">
<metadata>
Created by potrace 1.14, written by Peter Selinger 2001-2017
</metadata>
<g transform="translate(0.000000,700.000000) scale(0.100000,-0.100000)"
fill="#000000" stroke="none">
<path d="M3251 6960 c-1082 -85 -2039 -644 -2639 -1541 -251 -376 -436 -829
-521 -1279 -75 -398 -75 -882 0 -1280 258 -1363 1306 -2445 2657 -2744 542
-120 1093 -111 1627 29 1296 339 2284 1397 2534 2715 58 306 73 732 37 1030
-56 465 -195 899 -412 1289 -551 986 -1522 1636 -2639 1766 -162 19 -493 27
-644 15z"/>
</g>
</svg>
